#!OML:ASF I:\Actors\actors\Patient Classification 1\Patient 1\Session 1\Subject1.ASF
:FULLY-SPECIFIED
:DEGREES
1023
root 0.741176 17.5544 8.83097 8.408 -5.63567 -10.1848
lowerback 1.70941 1.63 6.59633
upperback -8.38923 2.71443 0.859918
thorax -9.62646 0.849738 -3.03014
lowerneck -15.8857 2.00985 3.51657
upperneck 28.7653 -0.908568 8.90421
head 12.2237 1.14987 2.63621
rclavicle -3.18055e-015 -2.70347e-014
rhumerus 57.9398 55.5405 -19.3923
rradius 102.101
rwrist -43.7256
rhand 12.0709 -22.1019
rfingers 7.12502
rthumb 37.0878 -48.1437
lclavicle -3.18055e-015 -2.70347e-014
lhumerus 33.6731 -59.0257 22.0291
lradius 88.8296
lwrist 66.4733
lhand 14.6729 -15.3588
lfingers 7.12502
lthumb 39.5437 10.0033
rfemur -5.81205 24.5462 25.7771
rtibia 3.25564
rfoot -9.63065 -19.9748
rtoes -0.592202
lfemur 2.93991 -34.9454 -9.56374
ltibia -2.47887
lfoot -15.7128 46.8219
ltoes 6.68983
1024
root 0.755743 17.5478 8.81541 8.7787 -6.1535 -10.1726
lowerback 1.62662 1.84304 6.91383
upperback -8.52297 3.01057 0.718019
thorax -9.6805 0.957937 -3.38334
lowerneck -16.0274 1.97356 3.7515
upperneck 28.8436 -0.966803 8.63483
head 12.2862 1.12032 2.49014
rclavicle -1.78906e-015 2.78299e-014
rhumerus 56.7846 54.381 -21.2675
rradius 100.109
rwrist -43.1667
rhand 11.577 -23.3872
rfingers 7.12502
rthumb 36.6205 -49.5488
lclavicle -1.78906e-015 2.78299e-014
lhumerus 33.6213 -59.3405 21.8681
lradius 88.8793
lwrist 66.6523
lhand 15.1208 -15.5807
lfingers 7.12502
lthumb 39.9654 9.65575
rfemur -6.5974 24.1797 25.4261
rtibia 3.55961
rfoot -9.3537 -19.1897
rtoes -1.43143
lfemur 2.42624 -34.5051 -9.38733
ltibia -2.31121
lfoot -15.9485 46.884
ltoes 7.12093
1025
root 0.747757 17.5602 8.82317 8.43351 -6.27378 -9.94713
lowerback 1.78286 1.81145 6.78952
upperback -8.38702 2.95946 0.636663
thorax -9.62557 0.943598 -3.40064
lowerneck -16.1324 1.95172 3.90092
upperneck 28.8991 -1.0152 8.49484
head 12.3321 1.10056 2.4078
rclavicle -1.56046e-014 8.74653e-015
rhumerus 56.5801 53.5092 -22.6666
rradius 98.8757
rwrist -42.7896
rhand 10.5675 -23.7599
rfingers 7.12502
rthumb 35.6644 -50.1581
lclavicle -1.56046e-014 8.74653e-015
lhumerus 33.5503 -59.6862 21.7344
lradius 88.8551
lwrist 66.5552
lhand 15.1859 -15.6969
lfingers 7.12502
lthumb 40.0266 9.5211
rfemur -5.92631 24.8741 25.4501
rtibia 3.2523
rfoot -9.34759 -19.8722
rtoes -1.34708
lfemur 2.91007 -34.1286 -9.82656
ltibia -2.37517
lfoot -15.8454 46.557
ltoes 6.94934
1026
root 0.745659 17.5645 8.82521 8.36598 -6.84844 -9.7578
lowerback 1.8025 1.93511 6.73914
upperback -8.32389 3.11271 0.543826
thorax -9.54583 1.02235 -3.48479
lowerneck -16.2368 1.89564 3.83478
upperneck 28.8921 -1.12903 8.62925
head 12.3571 1.06125 2.45521
rclavicle -1.94809e-014 3.97569e-015
rhumerus 56.8806 53.1357 -24.9361
rradius 97.8337
rwrist -42.2502
rhand 10.8358 -24.1863
rfingers 7.12502
rthumb 35.9187 -50.5228
lclavicle -1.94809e-014 3.97569e-015
lhumerus 33.7239 -60.0128 21.4892
lradius 88.766
lwrist 66.255
lhand 15.109 -15.6911
lfingers 7.12502
lthumb 39.9543 9.54871
rfemur -5.79416 25.2385 25.2841
rtibia 3.16044
rfoot -9.16357 -19.7546
rtoes -1.79534
lfemur 3.21031 -33.817 -10.236
ltibia -2.37437
lfoot -16.2788 46.6679
ltoes 7.33774
1027
root 0.746569 17.5634 8.82147 8.49194 -7.62827 -9.6783
lowerback 1.78725 2.09297 6.79386
upperback -8.32205 3.31984 0.462386
thorax -9.50501 1.11696 -3.61927
lowerneck -16.2336 1.8662 3.85741
upperneck 28.7308 -1.20199 8.73931
head 12.2967 1.03866 2.47598
rclavicle -7.25564e-015 -8.74653e-015
rhumerus 57.7648 53.2254 -25.7345
rradius 98.1517
rwrist -42.7512
rhand 9.24057 -24.5162
rfingers 7.12502
rthumb 34.4057 -51.2089
lclavicle -7.25564e-015 -8.74653e-015
lhumerus 33.8874 -60.2857 21.2584
lradius 88.6537
lwrist 65.8307
lhand 15.1702 -15.9299
lfingers 7.12502
lthumb 40.0118 9.2926
rfemur -6.02281 25.3578 25.0901
rtibia 3.19469
rfoot -8.92073 -19.1607
rtoes -2.36313
lfemur 3.33223 -33.5158 -10.4556
ltibia -2.34861
lfoot -16.9954 46.9687
ltoes 8.17802
1028
root 0.747432 17.5612 8.81805 8.63608 -8.39767 -9.64174
lowerback 1.77758 2.2379 6.85443
upperback -8.35432 3.51442 0.410172
thorax -9.50794 1.20381 -3.72554
lowerneck -16.0723 1.84777 3.93954
upperneck 28.4789 -1.22968 8.76653
head 12.1647 1.02506 2.45505
rclavicle -6.65929e-015 -2.38542e-015
rhumerus 59.3458 53.7542 -25.5484
rradius 99.0173
rwrist -42.7233
rhand 10.7333 -23.9417
rfingers 7.12502
rthumb 35.8215 -50.3019
lclavicle -6.65929e-015 -2.38542e-015
lhumerus 33.8897 -60.5415 21.2617
lradius 88.5918
lwrist 65.4942
lhand 15.1685 -15.925
lfingers 7.12502
lthumb 40.0102 9.29801
rfemur -6.27999 25.4808 24.9325
rtibia 3.24531
rfoot -8.8365 -18.5466
rtoes -2.34564
lfemur 3.47476 -33.3201 -10.6414
ltibia -2.35538
lfoot -17.9522 47.3361
ltoes 9.48267
1029
root 0.751317 17.5559 8.81451 8.8985 -9.17985 -9.60864
lowerback 1.67249 2.47725 6.91832
upperback -8.4323 3.82954 0.346162
thorax -9.48952 1.34913 -3.85206
lowerneck -15.9667 1.76645 4.02112
upperneck 28.2929 -1.33177 8.71133
head 12.0723 0.971243 2.39562
rclavicle -4.67144e-015 3.73715e-014
rhumerus 61.8141 54.5239 -24.3024
rradius 100.404
rwrist -42.9502
rhand 10.9082 -24.2837
rfingers 7.12502
rthumb 35.9872 -50.6033
lclavicle -4.67144e-015 3.73715e-014
lhumerus 34.0773 -60.8033 21.3146
lradius 88.5782
lwrist 65.2587
lhand 15.1248 -15.7729
lfingers 7.12502
lthumb 39.9691 9.46251
rfemur -6.75128 25.4287 24.6778
rtibia 3.37194
rfoot -8.75292 -17.7452
rtoes -2.27164
lfemur 3.50283 -33.3717 -10.8184
ltibia -2.38136
lfoot -19.1733 47.9373
ltoes 11.1315
1030
root 0.759576 17.5432 8.80485 9.47292 -9.95419 -9.70462
lowerback 1.39747 2.76478 7.05833
upperback -8.61625 4.2068 0.310823
thorax -9.47871 1.51798 -3.9868
lowerneck -15.9153 1.66949 4.1209
upperneck 28.1621 -1.45329 8.59933
head 12.0129 0.906612 2.3121
rclavicle -4.11484e-014 5.56597e-015
rhumerus 62.9178 55.6223 -23.178
rradius 102.083
rwrist -43.0912
rhand 11.9546 -24.4653
rfingers 7.12502
rthumb 36.9778 -50.5354
lclavicle -4.11484e-014 5.56597e-015
lhumerus 34.2148 -61.0029 21.4609
lradius 88.5844
lwrist 65.0145
lhand 15.1037 -15.9956
lfingers 7.12502
lthumb 39.9493 9.24577
rfemur -7.77595 25.0008 24.3559
rtibia 3.71324
rfoot -8.51506 -16.5525
rtoes -2.6981
lfemur 3.08534 -33.5655 -10.6337
ltibia -2.392
lfoot -20.2684 48.7472
ltoes 12.458
1031
root 0.75019 17.5532 8.80867 9.22453 -9.78516 -9.68513
lowerback 1.58019 2.66968 6.88785
upperback -8.55135 4.08552 0.36918
thorax -9.54156 1.47309 -3.82977
lowerneck -15.8811 1.5528 4.0753
upperneck 28.0767 -1.60452 8.61451
head 11.977 0.831277 2.29943
rclavicle 2.88238e-015 -1.27222e-014
rhumerus 64.0908 56.9146 -21.4656
rradius 103.653
rwrist -43.3559
rhand 12.5284 -24.2997
rfingers 7.12502
rthumb 37.5203 -50.2279
lclavicle 2.88238e-015 -1.27222e-014
lhumerus 34.1561 -61.0618 21.8174
lradius 88.6089
lwrist 64.8759
lhand 15.0236 -16.0623
lfingers 7.12502
lthumb 39.8738 9.20172
rfemur -7.301 25.259 24.539
rtibia 3.5018
rfoot -8.49561 -16.9738
rtoes -2.61006
lfemur 3.39536 -33.6788 -10.7392
ltibia -2.49097
lfoot -19.9141 48.744
ltoes 11.9677
1032
root 0.749378 17.5507 8.80774 9.32058 -9.6207 -9.70746
lowerback 1.46312 2.62422 6.78787
upperback -8.57718 4.01148 0.403382
thorax -9.51635 1.44707 -3.72585
lowerneck -15.867 1.3874 3.96778
upperneck 28.0044 -1.83095 8.6956
head 11.9541 0.724865 2.3121
rclavicle 2.15681e-014 1.27222e-014
rhumerus 64.9228 58.1813 -19.6694
rradius 104.984
rwrist -43.4702
rhand 12.921 -24.3607
rfingers 7.12502
rthumb 37.8913 -50.1894
lclavicle 2.15681e-014 1.27222e-014
lhumerus 34.0592 -60.9476 22.2609
lradius 88.6882
lwrist 64.9269
lhand 14.9456 -15.6436
lfingers 7.12502
lthumb 39.8005 9.64238
rfemur -7.45869 24.9351 24.505
rtibia 3.53554
rfoot -8.5073 -16.7815
rtoes -2.73201
lfemur 3.21824 -33.8374 -10.6363
ltibia -2.44956
lfoot -19.7173 48.8216
ltoes 11.5802
1033
root 0.748968 17.5446 8.80903 9.38537 -9.23704 -9.74095
lowerback 1.28727 2.52702 6.65629
upperback -8.57098 3.86103 0.455533
thorax -9.43082 1.39027 -3.57514
lowerneck -15.8644 1.18482 3.80014
upperneck 27.9009 -2.12143 8.87582
head 11.9263 0.594976 2.36234
rclavicle 9.54166e-015 -1.03368e-014
rhumerus 64.3515 59.2249 -18.3467
rradius 106.13
rwrist -42.7496
rhand 14.4963 -23.1347
rfingers 7.12502
rthumb 39.3773 -48.5456
lclavicle 9.54166e-015 -1.03368e-014
lhumerus 33.991 -60.7045 22.6561
lradius 88.7707
lwrist 65.1081
lhand 14.9273 -15.5111
lfingers 7.12502
lthumb 39.7832 9.78001
rfemur -7.51788 24.623 24.5132
rtibia 3.50976
rfoot -8.569 -16.813
rtoes -2.69722
lfemur 2.97578 -33.9834 -10.4912
ltibia -2.34525
lfoot -19.1487 48.7484
ltoes 10.6674
1034
root 0.735511 17.5527 8.8174 8.87887 -8.23714 -9.74053
lowerback 1.49411 2.2412 6.35424
upperback -8.38613 3.47422 0.549337
thorax -9.40655 1.2335 -3.28269
lowerneck -15.9122 0.927771 3.4974
upperneck 27.7428 -2.48448 9.17617
head 11.8942 0.43268 2.46935
rclavicle 8.34896e-015 -6.36111e-015
rhumerus 62.67 60.0701 -17.7242
rradius 107.047
rwrist -42.6657
rhand 14.9407 -22.7541
rfingers 7.12502
rthumb 39.7958 -48.0414
lclavicle 8.34896e-015 -6.36111e-015
lhumerus 34.2007 -60.4412 22.7853
lradius 88.7836
lwrist 65.262
lhand 14.7667 -15.758
lfingers 7.12502
lthumb 39.632 9.57801
rfemur -6.52245 25.0068 24.9243
rtibia 3.09585
rfoot -8.8257 -18.1494
rtoes -1.87497
lfemur 3.25782 -34.0829 -10.4716
ltibia -2.36878
lfoot -17.9101 48.0602
ltoes 9.02258
1035
root 0.729393 17.5538 8.81697 8.62349 -7.39913 -9.86597
lowerback 1.65247 2.08556 6.24123
upperback -8.28344 3.27217 0.615111
thorax -9.41465 1.14837 -3.13829
lowerneck -16.0053 0.663043 3.28088
upperneck 27.5691 -2.83267 9.30808
head 11.8626 0.265574 2.49994
rclavicle 1.5704e-014 -1.66979e-014
rhumerus 59.3092 60.552 -18.352
rradius 107.526
rwrist -42.7151
rhand 15.5157 -22.3088
rfingers 7.12502
rthumb 40.3369 -47.4323
lclavicle 1.5704e-014 -1.66979e-014
lhumerus 34.6355 -60.2193 22.636
lradius 88.8543
lwrist 65.5548
lhand 14.2431 -15.7518
lfingers 7.12502
lthumb 39.1387 9.72839
rfemur -6.06568 25.0268 25.2763
rtibia 2.98605
rfoot -9.10163 -18.9398
rtoes -1.16816
lfemur 3.30328 -34.2908 -10.2145
ltibia -2.45983
lfoot -17.1582 47.5909
ltoes 8.13338
1036
root 0.727645 17.5502 8.81335 8.53183 -6.63931 -9.98468
lowerback 1.69438 1.9273 6.18585
upperback -8.21543 3.06503 0.718357
thorax -9.3917 1.05845 -2.98027
lowerneck -16.1249 0.491784 3.09917
upperneck 27.4773 -3.01619 9.27758
head 11.8577 0.159455 2.49033
rclavicle 1.93815e-014 2.46493e-014
rhumerus 55.4465 60.5932 -19.5501
rradius 107.357
rwrist -42.6216
rhand 16.2358 -21.895
rfingers 7.12502
rthumb 41.0136 -46.8071
lclavicle 1.93815e-014 2.46493e-014
lhumerus 34.5844 -59.9839 22.7622
lradius 89.0104
lwrist 65.9756
lhand 13.6571 -15.7303
lfingers 7.12502
lthumb 38.5861 9.90703
rfemur -5.92679 24.8757 25.489
rtibia 3.01596
rfoot -9.3839 -19.4481
rtoes -0.560715
lfemur 3.14238 -34.5592 -9.90687
ltibia -2.51367
lfoot -16.4707 47.2713
ltoes 7.40016
